<?xml version="1.0" standalone="no"?>
<!DOCTYPE svg PUBLIC "-//W3C//DTD SVG 20010904//EN"
 "http://www.w3.org/TR/2001/REC-SVG-20010904/DTD/svg10.dtd">
<svg version="1.0" xmlns="http://www.w3.org/2000/svg"
 width="288.000000pt" height="240.000000pt" viewBox="0 0 288.000000 240.000000"
 preserveAspectRatio="xMidYMid meet">
<metadata>
Created by potrace 1.10, written by Peter Selinger 2001-2011
</metadata>
<g transform="translate(0.000000,240.000000) scale(0.100000,-0.100000)"
fill="#000000" stroke="none">
<path d="M2645 2373 c-46 -6 -242 -50 -319 -73 -74 -21 -89 -33 -81 -65 2 -11
5 -30 5 -42 0 -17 11 -27 49 -43 65 -29 97 -90 112 -216 19 -156 -5 -508 -52
-784 -85 -497 -236 -799 -442 -885 -45 -19 -156 -20 -200 -1 -45 19 -91 74
-117 143 -17 45 -23 87 -27 189 -7 165 4 256 72 599 70 352 79 390 127 580 84
336 62 403 -125 376 -72 -10 -434 -94 -442 -103 -2 -2 -6 -28 -10 -58 l-6 -55
53 -25 c41 -19 57 -34 72 -64 18 -36 18 -47 7 -129 -6 -49 -40 -240 -76 -425
-84 -446 -99 -545 -99 -687 0 -373 199 -575 567 -575 256 0 461 87 650 275
268 267 435 741 478 1352 21 314 -21 624 -94 690 -25 23 -58 31 -102 26z m73
-70 c109 -157 103 -767 -13 -1218 -103 -400 -265 -681 -489 -844 -87 -64 -234
-131 -324 -147 -159 -28 -358 -12 -455 37 -69 35 -97 59 -142 121 -55 74 -81
143 -96 254 -19 142 0 287 110 859 67 352 75 412 62 461 -17 63 -48 104 -91
122 -29 13 -40 23 -40 39 0 12 8 24 18 27 92 26 334 80 399 88 65 9 85 9 97
-1 27 -22 19 -114 -23 -287 -63 -255 -126 -553 -187 -884 -25 -135 -26 -432
-2 -511 23 -74 73 -146 126 -184 41 -28 49 -30 140 -30 86 0 103 3 155 28 153
75 285 283 372 582 116 401 168 1047 100 1246 -21 60 -77 126 -115 134 -20 4
-30 13 -30 25 0 21 28 30 215 74 184 43 189 43 213 9z"/>
<path d="M35 1165 c0 -37 4 -55 13 -55 15 0 15 -4 1 -54 -6 -22 -8 -59 -4 -83
6 -41 8 -43 41 -43 38 0 41 4 18 28 -13 13 -15 28 -10 76 7 66 30 101 59 90
13 -5 17 -24 19 -102 l3 -97 30 3 c34 4 46 13 28 19 -9 3 -13 31 -13 93 0 78
-2 91 -19 100 -27 14 -84 13 -99 -2 -13 -13 -15 -9 -12 45 1 34 0 37 -27 37
-27 0 -28 -1 -28 -55z"/>
</g>
</svg>
