<?xml version="1.0" standalone="no"?>
<!DOCTYPE svg PUBLIC "-//W3C//DTD SVG 20010904//EN"
 "http://www.w3.org/TR/2001/REC-SVG-20010904/DTD/svg10.dtd">
<svg version="1.0" xmlns="http://www.w3.org/2000/svg"
 width="265.000000pt" height="269.000000pt" viewBox="0 0 265.000000 269.000000"
 preserveAspectRatio="xMidYMid meet">
<metadata>
Created by potrace 1.10, written by Peter Selinger 2001-2011
</metadata>
<g transform="translate(0.000000,269.000000) scale(0.100000,-0.100000)"
fill="#777" stroke="none">
<path d="M2299 2406 c-2 -2 -62 -7 -134 -10 -71 -4 -247 -13 -390 -21 -143 -9
-341 -20 -440 -25 -99 -6 -200 -12 -225 -15 -57 -5 -151 -11 -480 -30 -507
-28 -467 -24 -496 -58 -23 -27 -25 -37 -20 -82 19 -164 19 -201 -3 -275 -12
-39 -38 -94 -57 -122 -46 -65 -50 -104 -13 -147 26 -31 30 -33 100 -34 120 -1
219 17 292 54 21 11 35 24 32 29 -3 5 1 7 9 4 9 -4 18 1 22 10 3 9 11 16 18
16 6 1 20 12 31 27 11 14 28 33 38 41 9 9 17 24 17 34 0 10 4 18 8 18 11 0 38
83 55 165 12 56 14 60 47 67 64 14 340 22 340 9 0 -6 -16 -120 -35 -254 -19
-133 -41 -291 -50 -352 -24 -180 -63 -455 -75 -534 -7 -41 -10 -85 -7 -98 2
-13 2 -21 -1 -18 -8 8 -71 -494 -72 -566 0 -41 7 -69 28 -109 34 -68 61 -88
137 -100 71 -12 139 -4 323 38 61 13 77 22 98 49 25 32 31 93 9 93 -5 0 -4 4
3 9 10 6 6 16 -18 40 -17 17 -36 31 -41 31 -4 0 -15 10 -23 23 -12 18 -13 39
-6 122 6 54 12 113 15 130 3 16 7 46 9 65 3 19 11 89 20 155 8 66 18 141 20
167 3 26 8 58 11 70 5 25 12 86 21 183 3 32 8 63 10 67 3 5 14 75 25 156 11
81 24 176 30 212 5 36 13 97 18 135 18 133 41 290 47 306 2 9 12 19 22 21 19
5 175 12 266 13 l60 0 19 -72 c11 -40 23 -70 27 -68 4 2 5 -7 2 -20 -2 -15 0
-25 7 -25 6 0 11 -4 11 -10 0 -5 14 -33 31 -60 21 -34 36 -49 46 -46 8 3 12 2
9 -2 -7 -12 33 -44 46 -36 6 4 8 3 5 -3 -8 -13 41 -36 55 -27 6 4 8 2 4 -4
-19 -32 242 -47 299 -18 17 9 36 16 42 16 18 0 45 69 37 94 -4 12 -21 53 -39
91 -18 39 -40 104 -49 145 -16 69 -16 83 -1 173 17 104 13 123 -27 151 -20 14
-107 23 -119 12z m114 -81 c0 -22 -4 -79 -8 -126 -12 -135 14 -244 77 -330 13
-16 18 -38 16 -59 -3 -29 -8 -34 -45 -45 -79 -23 -145 -26 -220 -11 -147 31
-236 122 -278 283 -8 31 -15 74 -15 95 l0 37 -47 -5 c-27 -2 -122 -9 -213 -14
-90 -6 -165 -12 -166 -13 -6 -6 -99 -663 -168 -1187 -91 -686 -91 -681 -3
-699 31 -6 32 -9 35 -60 2 -30 -1 -58 -6 -63 -15 -15 -265 -60 -342 -61 -171
-1 -200 66 -161 373 44 341 172 1274 207 1503 14 93 24 171 22 173 -2 1 -103
-3 -223 -11 -121 -8 -225 -15 -231 -15 -6 0 -14 -29 -18 -67 -11 -122 -42
-197 -109 -270 -79 -85 -201 -126 -365 -121 l-97 3 -3 33 c-2 24 4 41 23 64
40 47 72 117 85 185 12 58 11 87 -6 250 -6 59 -5 62 17 67 13 3 148 13 299 22
151 8 624 37 1050 64 426 26 802 47 835 46 l60 -1 -2 -40z"/>
<path d="M2115 2304 c-110 -7 -540 -34 -955 -59 -415 -25 -802 -48 -858 -51
l-104 -7 6 -31 c32 -167 11 -307 -60 -413 -24 -36 -43 -67 -42 -68 10 -8 202
16 243 30 143 49 215 155 234 345 5 45 11 83 13 86 9 9 550 36 558 27 5 -4 -5
-98 -21 -208 -42 -284 -132 -931 -174 -1255 -19 -151 -40 -308 -45 -348 -6
-40 -10 -92 -10 -114 0 -49 25 -105 52 -113 38 -13 151 -5 264 16 97 19 114
25 114 41 0 10 -8 21 -17 24 -60 19 -75 39 -88 114 -6 34 37 397 109 925 92
667 129 931 135 937 6 7 264 25 426 30 l90 3 6 -78 c17 -209 136 -336 316
-339 73 -1 143 11 143 24 0 6 -11 23 -23 38 -13 15 -35 61 -48 101 -19 60 -24
95 -24 184 0 61 4 125 8 143 8 31 7 32 -20 31 -15 -1 -118 -8 -228 -15z m199
-146 c-1 -112 11 -179 49 -270 20 -47 13 -51 -65 -49 -40 1 -75 9 -106 25 -53
27 -112 79 -112 99 0 8 -3 17 -7 21 -14 14 -33 84 -39 146 -4 36 -13 77 -21
92 -12 26 -12 28 9 33 22 5 96 9 228 13 l65 2 -1 -112z m-866 50 c-2 -7 -8
-17 -14 -23 -10 -9 -34 -157 -65 -405 -6 -41 -12 -88 -14 -105 -31 -215 -45
-307 -49 -327 -9 -41 -20 -142 -21 -185 0 -22 -3 -39 -7 -37 -4 3 -7 -8 -6
-23 0 -15 -15 -152 -35 -303 -20 -151 -42 -314 -48 -363 -11 -86 -5 -167 12
-167 4 0 6 -6 3 -14 -3 -8 3 -23 14 -34 36 -36 4 -48 -159 -58 -73 -5 -87 -3
-100 12 -21 26 -18 131 15 374 15 118 30 231 32 250 9 85 13 111 18 137 8 39
13 75 26 173 5 47 15 112 20 145 6 33 12 80 14 105 5 50 38 283 62 430 8 52
16 115 18 140 2 25 9 67 15 93 14 61 11 145 -7 152 -30 11 14 31 77 34 36 1
68 4 70 7 2 2 33 4 68 4 45 0 62 -4 61 -12z m-878 -54 c0 -7 -5 -14 -11 -16
-6 -2 -15 -42 -20 -88 -5 -47 -12 -94 -16 -105 -3 -11 -4 -21 -2 -21 2 -1 -3
-10 -12 -20 -9 -11 -24 -33 -32 -50 -33 -64 -166 -134 -256 -134 -36 0 -36 -1
-16 46 8 20 12 41 8 47 -3 5 -1 7 5 3 20 -12 45 138 39 235 -6 96 2 116 45
106 13 -3 48 -3 78 1 95 13 190 11 190 -4z"/>
</g>
</svg>
